<?xml version="1.0" encoding="UTF-8"?><svg id="Icons" xmlns="http://www.w3.org/2000/svg" width="48" height="48" viewBox="0 0 48 48"><path id="Region" d="M24,14c-5.51,0-10,4.49-10,10s4.49,10,10,10,10-4.49,10-10-4.49-10-10-10Zm-.5,4.74c-.97-.03-1.92-.13-2.81-.3,.69-1.81,1.69-3.07,2.81-3.36v3.67Zm0,1v3.76h-3.74c.04-1.49,.26-2.89,.61-4.11,.99,.2,2.05,.32,3.12,.35Zm0,4.76v3.76c-1.08,.03-2.13,.15-3.12,.35-.35-1.22-.57-2.62-.61-4.11h3.74Zm0,4.76v3.67c-1.12-.29-2.12-1.55-2.81-3.36,.89-.17,1.84-.28,2.81-.3Zm1,0c.97,.03,1.92,.13,2.81,.3-.69,1.81-1.69,3.07-2.81,3.36v-3.67Zm0-1v-3.76h3.74c-.04,1.49-.26,2.89-.61,4.11-.99-.2-2.05-.32-3.12-.35Zm0-4.76v-3.76c1.08-.03,2.13-.15,3.12-.35,.35,1.22,.57,2.62,.61,4.11h-3.74Zm0-4.76v-3.67c1.12,.29,2.12,1.55,2.81,3.36-.89,.17-1.84,.28-2.81,.3Zm2.23-3.31c1.33,.42,2.52,1.15,3.51,2.1-.58,.27-1.24,.5-1.93,.68-.41-1.13-.95-2.07-1.57-2.78Zm-7.03,2.78c-.7-.19-1.35-.41-1.93-.68,.98-.95,2.18-1.68,3.51-2.1-.62,.71-1.16,1.66-1.57,2.78Zm-.31,.95c-.37,1.29-.58,2.76-.62,4.34h-3.74c.11-1.97,.85-3.78,2.03-5.21,.7,.35,1.48,.64,2.33,.87Zm-.62,5.34c.04,1.58,.26,3.05,.62,4.34-.85,.23-1.64,.52-2.33,.87-1.18-1.43-1.92-3.24-2.03-5.21h3.74Zm.94,5.29c.41,1.13,.95,2.07,1.57,2.78-1.33-.42-2.52-1.15-3.51-2.1,.58-.27,1.24-.5,1.93-.68Zm8.6,0c.7,.19,1.35,.41,1.93,.68-.98,.95-2.18,1.68-3.51,2.1,.62-.71,1.16-1.66,1.57-2.78Zm.31-.95c.37-1.29,.58-2.76,.62-4.34h3.74c-.11,1.97-.85,3.78-2.03,5.21-.7-.35-1.48-.64-2.33-.87Zm.62-5.34c-.04-1.58-.26-3.05-.62-4.34,.85-.23,1.64-.52,2.33-.87,1.18,1.43,1.92,3.24,2.03,5.21h-3.74Z" fill="#212121"/></svg>