<?xml version="1.0" encoding="UTF-8"?><svg id="Icons" xmlns="http://www.w3.org/2000/svg" width="48" height="48" viewBox="0 0 48 48"><g id="Heart"><g id="Fill"><path d="M28.5,15.79c1.24,0,2.37,.52,3.18,1.35,.81,.83,1.32,1.98,1.32,3.26s-.78,2.56-1.32,3.26c-1.68,2.14-7.68,8.14-7.68,8.14,0,0-6-6-7.68-8.14-.54-.69-1.32-1.98-1.32-3.26s.5-2.42,1.32-3.26c.81-.83,1.94-1.35,3.18-1.35s2.37,.52,3.18,1.35c.81,.83,1.32,1.98,1.32,3.26,0-1.27,.5-2.42,1.32-3.26,.81-.83,1.94-1.35,3.18-1.35m0-1c-1.47,0-2.86,.59-3.9,1.65-.22,.23-.42,.47-.6,.73-.18-.26-.38-.5-.6-.73-1.04-1.06-2.42-1.65-3.9-1.65s-2.86,.59-3.9,1.65c-1.03,1.06-1.6,2.46-1.6,3.95,0,1.78,1.17,3.42,1.53,3.87,1.7,2.16,7.51,7.98,7.76,8.23l.71,.71,.71-.71c.25-.25,6.06-6.07,7.76-8.23,.36-.46,1.53-2.09,1.53-3.87,0-1.49-.57-2.9-1.6-3.95-1.04-1.06-2.42-1.65-3.9-1.65h0Z" fill="#212121"/></g></g></svg>