<svg id="Layer_1" data-name="Layer 1" xmlns="http://www.w3.org/2000/svg" width="40" height="24" viewBox="0 0 40 24"><g id="Visa"><rect id="_Path_" data-name="&lt;Path&gt;" width="40" height="24" rx="2" fill="#00579f"/><path d="M18.4,15.77H16.46l1.21-7.52h1.95Zm7.05-7.33a4.66,4.66,0,0,0-1.75-.32c-1.92,0-3.27,1-3.28,2.48,0,1.08,1,1.68,1.71,2s1,.61,1,.94c0,.5-.61.74-1.17.74a3.91,3.91,0,0,1-1.83-.4l-.25-.12-.27,1.68a5.65,5.65,0,0,0,2.16.4c2,0,3.37-1,3.39-2.56,0-.86-.51-1.52-1.63-2.05-.68-.35-1.1-.58-1.1-.93s.35-.65,1.12-.65A3.43,3.43,0,0,1,25,10l.17.08.27-1.62ZM28,13.11,28.81,11s.16-.44.25-.72l.14.65.45,2.18Zm2.4-4.86h-1.5a1,1,0,0,0-1,.63L25,15.77h2l.41-1.13H30c.05.27.23,1.13.23,1.13H32L30.43,8.25Zm-15.6,0-1.9,5.13-.21-1A5.76,5.76,0,0,0,10,9.19l1.75,6.57h2.05l3.06-7.51Z" fill="#fff"/><path id="_Path_2" data-name="&lt;Path&gt;" d="M11.16,8.25H8L8,8.4a6.51,6.51,0,0,1,4.72,3.94L12,8.88a.81.81,0,0,0-.88-.63Z" fill="#faa61a"/></g></svg>