<svg id="Layer_1" data-name="Layer 1" xmlns="http://www.w3.org/2000/svg" width="40" height="24" viewBox="0 0 40 24"><g id="Mastercard"><rect id="_Path_" data-name="&lt;Path&gt;" width="40" height="24" rx="2" fill="#0a0b09"/><path d="M27.4,17.84v0h0a0,0,0,0,0,0,0h0Zm0,0h0s0,0,0,0a0,0,0,0,1,0,0h0l0,0h0l0,0h0v0h0v-.11Zm0,.15h0l0,0,0,0s0,0,0,0,0,0,0,0,0,0,0,0l0,0h-.08l0,0a.05.05,0,0,0,0,0,0,0,0,0,0,0,0s0,0,0,0,0,0,0,0l0,0h0m0-.22h0a.05.05,0,0,1,0,0l0,0s0,0,0,0a.43.43,0,0,1,0,.05l0,0,0,0h-.1l0,0,0,0a.07.07,0,0,1,0-.05.06.06,0,0,1,0,0l0,0s0,0,0,0h.05M15.61,17.3a.38.38,0,1,1,.76,0,.38.38,0,1,1-.76,0m1,0v-.63h-.27v.15a.5.5,0,0,0-.4-.19.64.64,0,0,0-.64.67A.63.63,0,0,0,16,18a.49.49,0,0,0,.4-.18v.15h.27Zm9.3,0a.39.39,0,0,1,.39-.41.38.38,0,0,1,.38.41.37.37,0,0,1-.38.4.38.38,0,0,1-.39-.4m1,0V16.16h-.28v.66a.48.48,0,0,0-.4-.19.64.64,0,0,0-.63.67.63.63,0,0,0,.63.66.48.48,0,0,0,.4-.18v.15H27Zm-6.91-.42c.18,0,.29.11.32.31h-.66a.32.32,0,0,1,.34-.31m0-.25a.67.67,0,0,0,0,1.33.76.76,0,0,0,.52-.17l-.13-.21a.58.58,0,0,1-.37.13.35.35,0,0,1-.38-.31h.94s0-.06,0-.1a.62.62,0,0,0-.61-.67m3.33.67a.38.38,0,1,1,.76,0,.38.38,0,1,1-.76,0m1,0v-.63h-.27v.15a.5.5,0,0,0-.4-.19.64.64,0,0,0-.64.67.63.63,0,0,0,.64.66.49.49,0,0,0,.4-.18v.15h.27Zm-2.58,0a.64.64,0,0,0,.68.66.63.63,0,0,0,.45-.15l-.13-.22a.57.57,0,0,1-.33.11.37.37,0,0,1-.38-.4.39.39,0,0,1,.38-.41.52.52,0,0,1,.33.12l.13-.22a.69.69,0,0,0-1.13.51m3.55-.67a.37.37,0,0,0-.33.19v-.15h-.27v1.26H25v-.71c0-.21.09-.32.27-.32a.32.32,0,0,1,.17,0l.09-.26a.48.48,0,0,0-.2,0M18,16.77a.9.9,0,0,0-.51-.14c-.32,0-.53.16-.53.41s.15.33.44.37l.13,0c.15,0,.22.06.22.13s-.1.16-.29.16a.68.68,0,0,1-.42-.13l-.13.21a.92.92,0,0,0,.55.16c.36,0,.58-.17.58-.41s-.17-.34-.45-.38l-.13,0c-.12,0-.21,0-.21-.12s.09-.15.24-.15a.75.75,0,0,1,.39.11Zm3.56-.14a.39.39,0,0,0-.34.19v-.15h-.27v1.26h.27v-.71c0-.21.09-.32.27-.32a.38.38,0,0,1,.18,0l.08-.26a.46.46,0,0,0-.19,0m-2.35,0h-.45v-.39h-.28v.39h-.26v.25h.26v.57c0,.3.11.47.44.47a.64.64,0,0,0,.34-.09l-.08-.24a.47.47,0,0,1-.24.07c-.14,0-.18-.08-.18-.21v-.57h.45Zm-4.12,1.26v-.79a.51.51,0,0,0-.94-.28.48.48,0,0,0-.42-.23.41.41,0,0,0-.37.19v-.15h-.28v1.26h.28v-.7a.3.3,0,0,1,.31-.34c.18,0,.28.12.28.34v.7h.27v-.7a.3.3,0,0,1,.31-.34c.19,0,.28.12.28.34v.7Z" fill="#fff"/><path d="M27.57,13.72v-.18h-.05l-.06.12-.05-.12h-.05v.18h0v-.14l.05.12h0l.05-.12v.14Zm-.31,0v-.15h.06v0h-.16v0h.07v.15Z" fill="#f79410"/><path d="M22.09,14.52H17.91V7h4.18Z" fill="#ff5f00"/><path d="M18.18,10.77A4.76,4.76,0,0,1,20,7a4.77,4.77,0,1,0,0,7.5,4.77,4.77,0,0,1-1.82-3.75" fill="#eb001b"/><path d="M27.71,10.77A4.76,4.76,0,0,1,20,14.52,4.77,4.77,0,0,0,20,7a4.76,4.76,0,0,1,7.71,3.75" fill="#f79e1b"/></g></svg>