<svg id="Layer_1" data-name="Layer 1" xmlns="http://www.w3.org/2000/svg" width="40" height="24" viewBox="0 0 40 24"><g id="Paypal"><rect id="_Path_" data-name="&lt;Path&gt;" width="40" height="24" rx="2" fill="#eeeeee"/><path d="M10,8.6A2.47,2.47,0,0,0,8.11,8H5.62a.35.35,0,0,0-.35.3l-1,6.57a.21.21,0,0,0,.18.24H6l.38-2.44v.07a.36.36,0,0,1,.35-.3h.73a2.6,2.6,0,0,0,2.88-2.26l0-.15A1.58,1.58,0,0,0,10,8.6m6.55,3.13c-.09.61-.56.61-1,.61h-.26l.18-1.15a.14.14,0,0,1,.15-.12h.11c.31,0,.61,0,.76.18a.59.59,0,0,1,.08.48m-.2-1.61H14.64a.25.25,0,0,0-.24.2l-.69,4.4a.15.15,0,0,0,.12.17h.84a.24.24,0,0,0,.23-.2l.19-1.19a.24.24,0,0,1,.24-.2h.54a1.76,1.76,0,0,0,2-1.63,1.28,1.28,0,0,0-.22-1.11,1.57,1.57,0,0,0-1.25-.44m4,3.19a.91.91,0,0,1-.93.78.67.67,0,0,1-.55-.22.7.7,0,0,1-.13-.58.92.92,0,0,1,.92-.79.7.7,0,0,1,.55.23.74.74,0,0,1,.14.58m1.14-1.6h-.82a.14.14,0,0,0-.14.12l0,.23L20.43,12a1.18,1.18,0,0,0-1-.35,1.89,1.89,0,0,0-1.83,1.65,1.53,1.53,0,0,0,.31,1.27A1.29,1.29,0,0,0,19,15a1.59,1.59,0,0,0,1.14-.47l0,.23a.15.15,0,0,0,.12.17h.76a.25.25,0,0,0,.24-.2l.44-2.82a.14.14,0,0,0-.12-.16h0m4.38,0H25a.23.23,0,0,0-.19.1L23.7,13.49l-.49-1.61a.23.23,0,0,0-.22-.17h-.82a.14.14,0,0,0-.14.14.09.09,0,0,0,0,.05L23,14.57l-.86,1.2a.14.14,0,0,0,0,.2.11.11,0,0,0,.08,0H23a.25.25,0,0,0,.2-.1l2.75-4a.15.15,0,0,0,0-.2l-.08,0M10,8.6A2.47,2.47,0,0,0,8.11,8H5.62a.35.35,0,0,0-.35.3l-1,6.57a.21.21,0,0,0,.18.24H6l.38-2.44v.07a.36.36,0,0,1,.35-.3h.73a2.6,2.6,0,0,0,2.88-2.26l0-.15A1.58,1.58,0,0,0,10,8.6M6.78,10a.3.3,0,0,1,.31-.26H9a4.36,4.36,0,0,1,.65,0L10,9.9a2.37,2.37,0,0,1,.34.13A1.58,1.58,0,0,0,10,8.6,2.47,2.47,0,0,0,8.11,8H5.62a.35.35,0,0,0-.35.3l-1,6.57a.21.21,0,0,0,.18.24H6l.38-2.44Z" fill="#003087"/><path d="M28.79,11.73c-.09.61-.56.61-1,.61h-.26l.19-1.15a.14.14,0,0,1,.14-.12H28c.31,0,.6,0,.75.18a.55.55,0,0,1,.08.48m-.2-1.61H26.88a.25.25,0,0,0-.24.2L26,14.72a.15.15,0,0,0,.12.17H27a.18.18,0,0,0,.17-.14l.19-1.25a.24.24,0,0,1,.24-.2h.54a1.76,1.76,0,0,0,1.95-1.63,1.32,1.32,0,0,0-.21-1.11,1.6,1.6,0,0,0-1.26-.44m4,3.19a.91.91,0,0,1-.93.78.67.67,0,0,1-.55-.22.7.7,0,0,1-.13-.58.92.92,0,0,1,.92-.79.69.69,0,0,1,.55.23.7.7,0,0,1,.14.58m1.14-1.6H32.9a.14.14,0,0,0-.14.12l0,.23,0-.08a1.18,1.18,0,0,0-1-.35,1.89,1.89,0,0,0-1.84,1.65,1.57,1.57,0,0,0,.31,1.27,1.29,1.29,0,0,0,1,.41,1.56,1.56,0,0,0,1.14-.47l0,.23a.15.15,0,0,0,.12.17h.77a.24.24,0,0,0,.23-.2l.45-2.82a.15.15,0,0,0-.12-.16h0m1-1.47L34,14.72a.15.15,0,0,0,.12.17h.73a.23.23,0,0,0,.23-.2l.7-4.4a.15.15,0,0,0-.12-.17h-.82a.14.14,0,0,0-.14.12M10.34,10l0,.15a2.6,2.6,0,0,1-2.88,2.26H6.7a.36.36,0,0,0-.35.3L6,15.11l-.11.67A.2.2,0,0,0,6,16H7.35a.32.32,0,0,0,.31-.26v-.07l.24-1.54,0-.09a.3.3,0,0,1,.31-.26h.19a2.28,2.28,0,0,0,2.52-2,1.67,1.67,0,0,0-.26-1.49,1.17,1.17,0,0,0-.35-.28" fill="#009cde"/><path d="M10,9.9l-.16,0a.45.45,0,0,0-.16,0A3.3,3.3,0,0,0,9,9.78H7.09a.3.3,0,0,0-.31.26l-.42,2.63v.07a.36.36,0,0,1,.35-.3h.73a2.6,2.6,0,0,0,2.88-2.26l0-.15-.27-.11L10,9.9" fill="#012169"/></g></svg>